# xmcd
# 
# Track frame offsets:
#     150
#     15915
#     30652
#     44492
#     57645
#     71800
#     85117
#     97920
#     111130
#     124802
#     138802
#     151692
#     164702
#     175237
#     187912
#     198920
#     209920
#     221845
#     234285
#     248837
#     263012
#     276942
#     290270
#     301485
#     314387
#     328605
# 
# Disc length: 4582
# 
# Revision: 9
# Processed by: cddbd v1.5.2PL0 Copyright (c) Steve Scherf et al.
# Submitted via: fre:ac v1.0.31
# 
DISCID=7811e41a
DTITLE=Blues - The Mercury Blues 'N' Rhythm Story 1945-1955 - Disc 1
DYEAR=1996
DGENRE=Blues
TTITLE0=The Four Jumps Of Jive - It's Just The Blues (mono)
TTITLE1=Sippie Wallace - Bedroom Blues (mono)
TTITLE2=Sippie Wallace - Buzz Me (mono)
TTITLE3=T-Bone Walker - My Baby Left Me (mono)
TTITLE4=T-Bone Walker - Come Back To Me Baby Blues (mono)
TTITLE5=T-Bone Walker - She Is Going To Ruin Me (mono)
TTITLE6=Dinah Washington - Joy Juice (mono)
TTITLE7=Julia Lee - If It's Good (mono)
TTITLE8=Julia Lee - Show Me Missouri Blues (mono)
TTITLE9=Julia Lee - Dream Lucky Blues (mono)
TTITLE10=Albert Ammons and His Rhythm Kings featuring Mildred Anderson - Doin' The Boogie Woogie (mono)
TTITLE11=Albert Ammons and His Rhythm Kings - Suitcase Blues (mono)
TTITLE12=Myra Taylor - Tell Your Best Friend Nothing (mono)
TTITLE13=Eddie 'Cleanhead' Vinson - Railroad Porter's Blues (mono)
TTITLE14=Eddie 'Cleanhead' Vinson - Gonna Send You Where I Got You From (mono)
TTITLE15=Gene Ammons Sextet featuring Earl Coleman - Hold That Money (mono)
TTITLE16=Myra Taylor - I'm In The Sins This Morning (mono)
TTITLE17=Myra Taylor - Booted (mono)
TTITLE18=Dinah Washington - Long John Blues (mono)
TTITLE19=Big Bill Broonzy and His Fat Four - (I'm A) Wonderin' Man (mono)
TTITLE20=Big Bill Broonzy and His Fat Four - I Love My Whiskey (mono)
TTITLE21=Big Bill Broonzy and His Fat Four - You've Been Mistreating Me (mono)
TTITLE22=Big Bill Broonzy and His Fat Four - I Stay Blue All the Time (mono)
TTITLE23=Big Bill Broonzy and His Fat Four - Water Coast Blues (mono)
TTITLE24=St. Louis Jimmy - Shame On You Baby (mono)
TTITLE25=St. Louis Jimmy - I'm Not Satisfied (mono)
EXTD=
EXTT0=
EXTT1=
EXTT2=
EXTT3=
EXTT4=
EXTT5=
EXTT6=
EXTT7=
EXTT8=
EXTT9=
EXTT10=
EXTT11=
EXTT12=
EXTT13=
EXTT14=
EXTT15=
EXTT16=
EXTT17=
EXTT18=
EXTT19=
EXTT20=
EXTT21=
EXTT22=
EXTT23=
EXTT24=
EXTT25=
PLAYORDER=
